<svg xmlns="http://www.w3.org/2000/svg" data-name="Layer 1" viewBox="0 0 100 107.625" x="0px" y="0px"><title>Kazmierski_Noun</title><path d="M95,23V81.79H5ZM60.06,41.75A18.73,18.73,0,1,0,41.34,23,18.72,18.72,0,0,0,60.06,41.75ZM23.79,65.1a1.83,1.83,0,0,0,2.53-.72l2.7-4.6a2.18,2.18,0,0,0,.25-.61,10.54,10.54,0,0,0,.17-1.11l.21-5.21a1.09,1.09,0,0,1,1.24-1,1.38,1.38,0,0,1,.62.25,1.12,1.12,0,0,1,.33.42c.12.27.46,1.06.68,1.62a2.3,2.3,0,0,1,.14,1.13L32,59.69a1.93,1.93,0,0,0,1.52,2.21,1.84,1.84,0,0,0,2.07-1.62l.79-5.53a4.17,4.17,0,0,0-.13-1.46L35,50.54a2.41,2.41,0,0,1-.13-1.73l1.06-3.53a2.36,2.36,0,0,1,.82-1.19c2-1.51,8-6.13,8-6.13.42-.3.39-1,0-1.63s-1.14-.82-1.55-.51L36.77,40.6a.21.21,0,0,1-.32-.11h0a.19.19,0,0,1,.06-.2l7.3-5.45a1.2,1.2,0,0,0-.05-1.63c-.45-.59-1.14-.82-1.55-.52l-6.77,5.06a5.48,5.48,0,0,1-.6.38,3.52,3.52,0,0,1-2.19.34l-.42-.07A3.23,3.23,0,0,0,28.73,40a5.38,5.38,0,0,0-.43,1s-1.66,5.5-1.66,5.5a7.88,7.88,0,0,0-.31,1.81c-.14,2.45-.5,9-.5,9a2.33,2.33,0,0,1-.28,1l-2.33,4.17A1.92,1.92,0,0,0,23.79,65.1Zm7.93-27.72a3.09,3.09,0,0,0,1.37.49,3.13,3.13,0,0,0,1.59-.27,3.06,3.06,0,1,0-4.33-2.47A3.1,3.1,0,0,0,31.72,37.38Z"/><text x="0" y="101.1" fill="#000000" font-size="5px" font-weight="bold" font-family="'Helvetica Neue', Helvetica, Arial-Unicode, Arial, Sans-serif">Created by Lucas Kazmierski</text><text x="0" y="106.1" fill="#000000" font-size="5px" font-weight="bold" font-family="'Helvetica Neue', Helvetica, Arial-Unicode, Arial, Sans-serif">from the Noun Project</text></svg>