<?xml version="1.0" encoding="UTF-8"?>
<svg version="1.1" xmlns="http://www.w3.org/2000/svg" width="1519" height="734">
<path d="M0 0 C501.27 0 1002.54 0 1519 0 C1519 242.22 1519 484.44 1519 734 C1017.73 734 516.46 734 0 734 C0 491.78 0 249.56 0 0 Z " fill="#E8E6FE" transform="translate(0,0)"/>
<path d="M0 0 C2.9325669 -0.00435386 5.86359637 -0.04084358 8.79589844 -0.07861328 C25.92972804 -0.11238561 41.05202969 2.12442079 58.45996094 4.37060547 C58.45996094 210.95060547 58.45996094 417.53060547 58.45996094 630.37060547 C-442.81003906 630.37060547 -944.08003906 630.37060547 -1460.54003906 630.37060547 C-1460.54003906 576.25060547 -1460.54003906 522.13060547 -1460.54003906 466.37060547 C-1456.19680369 470.09337865 -1451.96416901 473.79147879 -1447.79003906 477.68310547 C-1443.11826299 482.00205939 -1438.3126599 486.09371854 -1433.35253906 490.08154297 C-1430.91731391 492.06354566 -1428.53436931 494.09337178 -1426.16235352 496.15014648 C-1368.54263493 545.85155033 -1295.43621676 583.04510589 -1219.54003906 592.37060547 C-1218.77643066 592.47356934 -1218.01282227 592.5765332 -1217.22607422 592.68261719 C-1159.11585633 600.41517298 -1100.32946128 588.10423431 -1045.35253906 569.80810547 C-1044.58134735 569.55149139 -1043.81015564 569.29487732 -1043.01559448 569.03048706 C-990.29581257 551.40908605 -939.6227814 526.58159921 -891.42822266 499.01611328 C-888.52023281 497.35932109 -885.60404426 495.71800414 -882.68457031 494.08154297 C-870.16657588 487.0614224 -857.79171437 479.84549409 -845.54003906 472.37060547 C-844.55165039 471.76877441 -843.56326172 471.16694336 -842.54492188 470.546875 C-817.18792757 455.08845342 -792.3087448 438.97608297 -767.63859558 422.45188904 C-763.13189482 419.43368385 -758.61973734 416.42385602 -754.10253906 413.42138672 C-726.62460977 395.15459124 -699.54525997 376.32772452 -672.54003906 357.37060547 C-671.80591797 356.85546387 -671.07179688 356.34032227 -670.31542969 355.80957031 C-661.58604732 349.67971772 -652.90762268 343.48433001 -644.27001953 337.22583008 C-638.5238593 333.06727771 -632.73677211 328.96997806 -626.93457031 324.89013672 C-621.77437186 321.2560598 -616.65074966 317.57389146 -611.54003906 313.87060547 C-605.03945423 309.1601989 -598.50140026 304.50762939 -591.93457031 299.89013672 C-586.77437186 296.2560598 -581.65074966 292.57389146 -576.54003906 288.87060547 C-570.0373182 284.15865111 -563.49732115 279.50425356 -556.92797852 274.88574219 C-551.83099422 271.29664756 -546.77329744 267.65627533 -541.72753906 263.99560547 C-532.87206953 257.57584772 -523.91322405 251.30919609 -514.94335938 245.05078125 C-511.23829385 242.46054751 -507.54456142 239.85438342 -503.85253906 237.24560547 C-503.15845947 236.75535889 -502.46437988 236.2651123 -501.74926758 235.76000977 C-498.33574426 233.34823362 -494.92373325 230.93433263 -491.51269531 228.51904297 C-446.00265887 196.31303254 -399.79957747 164.96077693 -352.54003906 135.37060547 C-351.76208984 134.88188965 -350.98414063 134.39317383 -350.18261719 133.88964844 C-318.3154819 113.89086078 -285.74313068 95.06017984 -252.54003906 77.37060547 C-250.98687988 76.54157715 -250.98687988 76.54157715 -249.40234375 75.69580078 C-188.47792327 43.29874012 -124.77372115 17.72777059 -56.85253906 4.62060547 C-55.36149658 4.32271118 -55.36149658 4.32271118 -53.84033203 4.01879883 C-36.10717291 0.71733761 -17.99962175 -0.00295949 0 0 Z " fill="#FEFEFE" transform="translate(1460.5400390625,103.62939453125)"/>
</svg>
